<svg width="162" height="32" viewBox="0 0 162 32" fill="none" xmlns="http://www.w3.org/2000/svg">
<path d="M1.65086 19.6835C1.65086 19.6769 1.64752 19.6735 1.64085 19.6735C1.64085 19.6669 1.64085 19.6602 1.64085 19.6535C1.64085 19.5668 1.68756 19.5234 1.78098 19.5234C1.84103 19.5234 1.89442 19.5467 1.94113 19.5935C2.20804 19.847 2.51166 20.0539 2.85197 20.214C3.19896 20.3742 3.57264 20.4543 3.97301 20.4543C4.07978 20.4543 4.20323 20.4442 4.34336 20.4242C4.48349 20.3975 4.61695 20.3575 4.74373 20.3041C4.87052 20.2507 4.97395 20.1807 5.05402 20.0939C5.14077 20.0005 5.18414 19.8871 5.18414 19.7536C5.18414 19.6068 5.14744 19.4733 5.07404 19.3532C5.00064 19.2264 4.90388 19.123 4.78377 19.0429C4.71704 18.9962 4.60026 18.9162 4.43344 18.8027C4.26662 18.6826 4.08645 18.5558 3.89294 18.4224C3.7061 18.2889 3.52593 18.1621 3.35244 18.042C3.18562 17.9219 3.06884 17.8352 3.00211 17.7818C2.70183 17.5549 2.46161 17.3247 2.28144 17.0911C2.10795 16.8576 1.97449 16.6174 1.88107 16.3705C1.78765 16.1169 1.72759 15.8533 1.7009 15.5797C1.67421 15.3061 1.66087 15.0159 1.66087 14.7089C1.66087 14.2418 1.78431 13.8014 2.03121 13.3877C2.27811 12.974 2.60174 12.6103 3.00211 12.2967C3.40916 11.983 3.86959 11.7361 4.3834 11.556C4.89721 11.3691 5.42103 11.2757 5.95486 11.2757C6.39527 11.2757 6.829 11.3424 7.25607 11.4759C7.68313 11.6094 8.08017 11.8362 8.44717 12.1565C8.48054 12.5769 8.50389 12.9906 8.51724 13.3977C8.53059 13.8047 8.5506 14.2318 8.5773 14.6789C8.5773 14.7656 8.55728 14.8257 8.51724 14.8591C8.4772 14.8857 8.43049 14.8991 8.37711 14.8991C8.3304 14.8991 8.29036 14.8824 8.257 14.849C8.10352 14.7022 7.94671 14.5588 7.78656 14.4186C7.62641 14.2718 7.45625 14.1451 7.27609 14.0383C7.10259 13.9249 6.91575 13.8348 6.71556 13.768C6.51538 13.6946 6.30185 13.6579 6.07497 13.6579C5.93484 13.6579 5.79471 13.6713 5.65458 13.698C5.51445 13.718 5.38766 13.7614 5.27422 13.8281C5.16079 13.8881 5.06737 13.9716 4.99396 14.0783C4.92724 14.1851 4.89387 14.3219 4.89387 14.4887C4.89387 14.6822 4.91723 14.849 4.96394 14.9892C5.01065 15.1293 5.12075 15.2661 5.29424 15.3996L7.15597 16.6607C7.49629 16.8943 7.76988 17.1245 7.97674 17.3514C8.19027 17.5716 8.35709 17.7918 8.4772 18.012C8.59731 18.2322 8.67739 18.4524 8.71743 18.6726C8.76414 18.8861 8.78749 19.0997 8.78749 19.3132C8.78749 19.9138 8.64736 20.4442 8.3671 20.9047C8.09351 21.3584 7.73651 21.7388 7.2961 22.0457C6.85569 22.346 6.35523 22.5729 5.79471 22.7264C5.24086 22.8865 4.68368 22.9666 4.12315 22.9666C3.69609 22.9666 3.28237 22.9199 2.882 22.8265C2.4883 22.7397 2.12129 22.6029 1.78098 22.4161L1.65086 19.6835ZM10.4891 18.2022C10.5758 17.288 10.6626 16.3838 10.7493 15.4896C10.8361 14.5955 10.9128 13.678 10.9795 12.7371C10.9929 12.5169 11.0129 12.3667 11.0396 12.2867C11.0729 12.1999 11.1497 12.1432 11.2698 12.1165C11.837 12.0031 12.4309 11.8863 13.0515 11.7662C13.672 11.6394 14.2726 11.4792 14.8531 11.2857C14.8731 11.2791 14.9032 11.2757 14.9432 11.2757C15.0166 11.2757 15.0533 11.3024 15.0533 11.3558L14.1525 21.1049C14.1325 21.3251 14.1091 21.4785 14.0824 21.5653C14.0557 21.6454 13.9823 21.6987 13.8622 21.7254C13.295 21.8989 12.7211 22.0924 12.1406 22.306C11.5601 22.5195 10.9462 22.7364 10.2989 22.9566C10.2789 22.9633 10.2488 22.9666 10.2088 22.9666C10.1354 22.9666 10.0987 22.9332 10.0987 22.8665C10.0987 22.8598 10.1054 22.7697 10.1187 22.5962C10.1321 22.4228 10.1488 22.1992 10.1688 21.9256C10.1955 21.652 10.2222 21.3451 10.2488 21.0048C10.2755 20.6644 10.3022 20.3241 10.3289 19.9838C10.3623 19.6435 10.3923 19.3165 10.419 19.0029C10.4457 18.6893 10.4691 18.4224 10.4891 18.2022ZM11.2398 10.2147C11.2598 9.9278 11.2731 9.7076 11.2798 9.55412C11.2932 9.40064 11.3032 9.28721 11.3098 9.2138C11.3165 9.13373 11.3198 9.08368 11.3198 9.06366C11.3198 9.04365 11.3198 9.0303 11.3198 9.02363C11.3265 9.01028 11.3299 8.99026 11.3299 8.96357C11.3365 8.93021 11.3432 8.86681 11.3499 8.77339C11.3565 8.6733 11.3666 8.52983 11.3799 8.34299C11.3932 8.15615 11.4133 7.89925 11.44 7.57228C11.4533 7.35207 11.4733 7.20193 11.5 7.12186C11.5334 7.03511 11.6101 6.97839 11.7302 6.9517C12.2974 6.83826 12.8913 6.72149 13.5119 6.60138C14.1325 6.47459 14.733 6.31444 15.3136 6.12093C15.3336 6.11426 15.3636 6.11092 15.4036 6.11092C15.4237 6.15096 15.4504 6.17765 15.4837 6.19099L15.5137 6.21101L15.2935 8.95356C15.2735 9.17377 15.2468 9.32724 15.2135 9.41399C15.1868 9.50074 15.1167 9.55412 15.0033 9.57414C14.4361 9.6809 13.8622 9.79768 13.2817 9.92446C12.7011 10.0512 12.0872 10.178 11.44 10.3048C11.4199 10.3115 11.3899 10.3148 11.3499 10.3148C11.2765 10.3148 11.2398 10.2815 11.2398 10.2147ZM30.9181 22.8064C30.8447 22.8265 30.7479 22.8565 30.6278 22.8965C30.5077 22.9432 30.3909 22.9666 30.2775 22.9666C30.184 22.9666 30.1006 22.9432 30.0272 22.8965C29.9605 22.8498 29.9271 22.7697 29.9271 22.6563V22.5962C29.9739 22.1091 30.0139 21.7154 30.0473 21.4151C30.0806 21.1082 30.1073 20.8613 30.1273 20.6745C30.1473 20.4876 30.164 20.3475 30.1774 20.2541C30.1907 20.154 30.2041 20.0639 30.2174 19.9838C30.2308 19.8971 30.2408 19.8036 30.2474 19.7036C30.2608 19.6035 30.2775 19.4633 30.2975 19.2832C30.3175 19.0963 30.3409 18.8528 30.3676 18.5525C30.4009 18.2455 30.441 17.8452 30.4877 17.3514C30.5144 17.0845 30.541 16.8209 30.5677 16.5606C30.6011 16.2937 30.6178 16.0502 30.6178 15.83C30.6178 15.5497 30.6011 15.2961 30.5677 15.0692C30.541 14.8357 30.4877 14.6388 30.4076 14.4787C30.3342 14.3119 30.2308 14.1818 30.0973 14.0883C29.9638 13.9949 29.7937 13.9482 29.5868 13.9482C29.46 13.9482 29.2932 13.9749 29.0864 14.0283C28.8862 14.0817 28.6827 14.1784 28.4758 14.3185C28.2689 14.452 28.0821 14.6322 27.9153 14.8591C27.7485 15.0793 27.6417 15.3595 27.595 15.6998V15.7399C27.5149 16.5006 27.4415 17.1612 27.3748 17.7217C27.3147 18.2756 27.2613 18.7527 27.2146 19.153C27.1679 19.5534 27.1279 19.8871 27.0945 20.154C27.0678 20.4209 27.0445 20.6478 27.0244 20.8346C27.0044 21.0148 26.9877 21.1649 26.9744 21.285C26.9677 21.4051 26.9644 21.5186 26.9644 21.6253C26.9644 21.6787 26.9644 21.7254 26.9644 21.7655C26.9711 21.7988 26.9744 21.8289 26.9744 21.8556C26.9744 21.9089 26.9477 21.9556 26.8943 21.9957C26.8476 22.0291 26.7375 22.0724 26.564 22.1258L24.2118 22.8064C24.1384 22.8265 24.0417 22.8565 23.9216 22.8965C23.8014 22.9432 23.6847 22.9666 23.5712 22.9666C23.4778 22.9666 23.3944 22.9432 23.321 22.8965C23.2543 22.8498 23.2209 22.7697 23.2209 22.6563V22.5962C23.2676 22.1091 23.3043 21.7154 23.331 21.4151C23.3644 21.1082 23.3911 20.8613 23.4111 20.6745C23.4378 20.4876 23.4578 20.3475 23.4711 20.2541C23.4845 20.154 23.4945 20.0639 23.5012 19.9838C23.5145 19.8971 23.5279 19.8036 23.5412 19.7036C23.5546 19.6035 23.5679 19.4633 23.5812 19.2832C23.6013 19.0963 23.6246 18.8528 23.6513 18.5525C23.6847 18.2455 23.7247 17.8452 23.7714 17.3514C23.7981 17.0845 23.8248 16.8209 23.8515 16.5606C23.8849 16.2937 23.9015 16.0502 23.9015 15.83C23.9015 15.5497 23.8882 15.2961 23.8615 15.0692C23.8348 14.8357 23.7848 14.6388 23.7114 14.4787C23.6446 14.3119 23.5512 14.1818 23.4311 14.0883C23.311 13.9949 23.1575 13.9482 22.9707 13.9482C22.8372 13.9482 22.6537 13.9816 22.4202 14.0483C22.1933 14.115 21.9631 14.2251 21.7295 14.3786C21.5026 14.5321 21.2991 14.7356 21.119 14.9892C20.9455 15.2361 20.8454 15.543 20.8187 15.91C20.7653 16.4038 20.7219 16.8109 20.6886 17.1312C20.6552 17.4448 20.6285 17.705 20.6085 17.9119C20.5885 18.1121 20.5718 18.2756 20.5584 18.4023C20.5518 18.5225 20.5451 18.6359 20.5384 18.7427C20.5317 18.7694 20.5217 18.8461 20.5084 18.9729C20.495 19.093 20.4784 19.2398 20.4583 19.4133C20.445 19.5801 20.4283 19.7636 20.4083 19.9638C20.3949 20.1573 20.3816 20.3408 20.3683 20.5143C20.3549 20.6811 20.3416 20.8279 20.3282 20.9547C20.3215 21.0748 20.3182 21.1482 20.3182 21.1749V21.3551C20.3182 21.4218 20.3149 21.4785 20.3082 21.5252C20.3015 21.572 20.2815 21.6153 20.2481 21.6554C20.2148 21.6954 20.1647 21.7321 20.098 21.7655C20.038 21.7988 19.9512 21.8355 19.8378 21.8756L17.2153 22.8064C17.1419 22.8331 17.0452 22.8665 16.9251 22.9065C16.8049 22.9466 16.6882 22.9666 16.5747 22.9666C16.4813 22.9666 16.3979 22.9432 16.3245 22.8965C16.2578 22.8498 16.2244 22.7697 16.2244 22.6563L17.1252 12.4468C17.1453 12.2266 17.1686 12.0765 17.1953 11.9964C17.2287 11.9096 17.3054 11.8529 17.4255 11.8262C18.0328 11.7061 18.6533 11.586 19.2873 11.4659C19.9212 11.3391 20.5418 11.179 21.149 10.9855C21.2024 10.9855 21.2324 10.9955 21.2391 11.0155C21.2524 11.0288 21.2591 11.0522 21.2591 11.0855L21.129 12.5469C21.3759 12.4201 21.6528 12.2833 21.9597 12.1365C22.2667 11.983 22.587 11.8429 22.9206 11.7161C23.2609 11.5893 23.6046 11.4859 23.9516 11.4058C24.3053 11.3191 24.6489 11.2757 24.9825 11.2757C25.443 11.2757 25.8667 11.3825 26.2537 11.596C26.6474 11.8029 26.9711 12.1499 27.2246 12.637C27.5249 12.4435 27.8419 12.2633 28.1755 12.0965C28.5158 11.9297 28.8595 11.7862 29.2065 11.6661C29.5601 11.546 29.9138 11.4526 30.2675 11.3858C30.6211 11.3191 30.9648 11.2857 31.2984 11.2857C31.7188 11.2857 32.1158 11.3458 32.4895 11.4659C32.8632 11.586 33.1868 11.7829 33.4604 12.0564C33.7407 12.33 33.9609 12.687 34.121 13.1274C34.2812 13.5612 34.3613 14.0917 34.3613 14.7189C34.3613 14.8791 34.3579 15.0459 34.3513 15.2194C34.3446 15.3862 34.3312 15.5597 34.3112 15.7399L33.8508 20.0239C33.8174 20.3041 33.7974 20.5644 33.7907 20.8046C33.7841 21.0381 33.7807 21.3117 33.7807 21.6253C33.7807 21.6787 33.7807 21.7254 33.7807 21.7655C33.7874 21.7988 33.7907 21.8289 33.7907 21.8556C33.7907 21.9156 33.764 21.9623 33.7107 21.9957C33.664 22.0291 33.5538 22.0724 33.3804 22.1258L30.9181 22.8064ZM40.3468 15.4596C40.3068 16.1002 40.2701 16.6207 40.2367 17.0211C40.21 17.4214 40.1867 17.7484 40.1667 18.002C40.1466 18.2489 40.13 18.4457 40.1166 18.5925C40.1033 18.7327 40.0933 18.8661 40.0866 18.9929C40.2401 19.3933 40.4669 19.7202 40.7672 19.9738C41.0675 20.2207 41.4278 20.3442 41.8482 20.3442C42.2152 20.3442 42.5355 20.2307 42.8091 20.0038C43.0894 19.7703 43.3196 19.47 43.4998 19.103C43.6866 18.736 43.8267 18.3256 43.9202 17.8719C44.0136 17.4181 44.0603 16.9677 44.0603 16.5206C44.0603 16.1536 44.0269 15.8133 43.9602 15.4996C43.9001 15.186 43.8067 14.9158 43.6799 14.6889C43.5531 14.4553 43.393 14.2752 43.1995 14.1484C43.0126 14.0149 42.7891 13.9482 42.5289 13.9482C42.3153 13.9482 42.1018 13.9916 41.8883 14.0783C41.6814 14.1584 41.4812 14.2652 41.2877 14.3986C41.0942 14.5254 40.9174 14.6722 40.7572 14.839C40.6037 14.9992 40.477 15.156 40.3769 15.3095L40.3468 15.4596ZM40.547 12.5269C41.1075 12.1465 41.6948 11.8429 42.3087 11.616C42.9226 11.3892 43.5632 11.2757 44.2304 11.2757C44.8577 11.2757 45.3982 11.4058 45.8519 11.6661C46.3124 11.9197 46.6927 12.2666 46.993 12.7071C47.2933 13.1408 47.5135 13.6413 47.6536 14.2084C47.8004 14.7756 47.8738 15.3695 47.8738 15.9901C47.8738 16.5306 47.8204 17.0778 47.7137 17.6316C47.6069 18.1855 47.4501 18.7226 47.2432 19.2431C47.0364 19.7569 46.7795 20.2407 46.4725 20.6945C46.1656 21.1482 45.8119 21.5453 45.4115 21.8856C45.0178 22.2192 44.5774 22.4828 44.0903 22.6763C43.6032 22.8698 43.076 22.9666 42.5088 22.9666C42.0084 22.9666 41.5279 22.8665 41.0675 22.6663C40.6137 22.4661 40.1867 22.2059 39.7863 21.8856C39.7863 21.9189 39.7763 22.0424 39.7563 22.2559C39.7429 22.4628 39.7229 22.7164 39.6962 23.0166C39.6695 23.3169 39.6395 23.6372 39.6061 23.9775C39.5728 24.3245 39.5427 24.6482 39.5161 24.9484C39.4894 25.2487 39.466 25.5023 39.446 25.7091C39.4326 25.9227 39.426 26.0461 39.426 26.0795C39.426 26.1329 39.426 26.1762 39.426 26.2096C39.4326 26.2496 39.436 26.2863 39.436 26.3197C39.436 26.3731 39.4093 26.4165 39.3559 26.4498C39.3092 26.4899 39.1991 26.5332 39.0256 26.5799L36.3932 27.2506C36.3198 27.2706 36.223 27.3006 36.1029 27.3407C35.9828 27.3874 35.866 27.4107 35.7526 27.4107C35.6591 27.4107 35.5757 27.3874 35.5023 27.3407C35.4356 27.2939 35.4022 27.2072 35.4022 27.0804L36.6234 12.4268C36.6434 12.2066 36.6667 12.0564 36.6934 11.9764C36.7268 11.8896 36.8035 11.8329 36.9236 11.8062C37.5309 11.6861 38.1548 11.566 38.7954 11.4459C39.436 11.3191 40.0599 11.1589 40.6671 10.9654C40.7205 10.9654 40.7505 10.9754 40.7572 10.9955C40.7706 11.0088 40.7772 11.0322 40.7772 11.0655C40.7772 11.0789 40.7739 11.0989 40.7672 11.1256C40.7672 11.1523 40.7572 11.2123 40.7372 11.3057C40.7238 11.3992 40.7005 11.5426 40.6671 11.7361C40.6404 11.923 40.6004 12.1866 40.547 12.5269ZM49.8357 13.9782C49.9157 13.0641 49.9791 12.1599 50.0258 11.2657C50.0792 10.3715 50.1359 9.45403 50.196 8.51315C50.2093 8.29295 50.2294 8.14281 50.256 8.06273C50.2894 7.97599 50.3661 7.91927 50.4863 7.89258C51.1068 7.77914 51.7274 7.6657 52.348 7.55226C52.9752 7.43215 53.6025 7.27534 54.2297 7.08182C54.2498 7.07515 54.2798 7.07181 54.3198 7.07181C54.3932 7.07181 54.4299 7.10518 54.4299 7.17191L53.1287 21.4652V21.6354C53.1287 21.6954 53.1054 21.7455 53.0586 21.7855C53.0119 21.8189 52.9018 21.8589 52.7283 21.9056L50.1059 22.8665C50.0325 22.8999 49.9357 22.9332 49.8156 22.9666C49.6955 23.0066 49.5787 23.0266 49.4653 23.0266C49.3719 23.0266 49.2885 23.0033 49.2151 22.9566C49.1483 22.9099 49.115 22.8298 49.115 22.7164V22.6563C49.1684 21.9823 49.2184 21.3251 49.2651 20.6845C49.3185 20.0372 49.3719 19.3699 49.4253 18.6826C49.4853 17.9953 49.5487 17.268 49.6154 16.5006C49.6822 15.7332 49.7556 14.8924 49.8357 13.9782ZM61.3363 11.2757C61.9703 11.2757 62.5441 11.3958 63.0579 11.6361C63.5784 11.8696 64.0222 12.1766 64.3892 12.5569C64.7629 12.9306 65.0498 13.351 65.25 13.8181C65.4502 14.2852 65.5503 14.7523 65.5503 15.2194C65.5503 15.6331 65.4235 16.0502 65.1699 16.4706C64.9163 16.8843 64.5593 17.2579 64.0989 17.5916C63.6452 17.9252 63.098 18.1955 62.4574 18.4023C61.8168 18.6092 61.1128 18.7126 60.3454 18.7126C59.9451 18.7126 59.5247 18.6726 59.0843 18.5925C59.1109 18.8795 59.1944 19.1264 59.3345 19.3332C59.4746 19.5401 59.6514 19.7102 59.865 19.8437C60.0785 19.9771 60.3187 20.0772 60.5856 20.144C60.8592 20.204 61.1395 20.234 61.4264 20.234C61.7467 20.234 62.0537 20.2074 62.3473 20.154C62.6476 20.0939 62.9345 20.0172 63.2081 19.9238C63.4817 19.8303 63.7453 19.7269 63.9988 19.6135C64.2524 19.5 64.4926 19.3866 64.7195 19.2732C64.7795 19.2598 64.8296 19.2498 64.8696 19.2431C64.9163 19.2298 64.9597 19.2231 64.9998 19.2231C64.9998 19.2231 64.9964 19.2765 64.9897 19.3833C64.9897 19.49 64.9897 19.6402 64.9897 19.8337C64.9897 20.0272 64.9864 20.2607 64.9797 20.5343C64.9797 20.8079 64.9764 21.1115 64.9697 21.4452C64.9897 21.4785 65.0031 21.5119 65.0098 21.5453C65.0164 21.5786 65.0198 21.6053 65.0198 21.6253C65.0198 21.7054 64.9464 21.7922 64.7996 21.8856C64.6528 21.979 64.4592 22.0758 64.219 22.1759C63.9855 22.2759 63.7152 22.3727 63.4083 22.4661C63.108 22.5595 62.801 22.643 62.4874 22.7164C62.1738 22.7964 61.8702 22.8565 61.5766 22.8965C61.283 22.9432 61.0261 22.9666 60.8059 22.9666C60.0852 22.9666 59.3845 22.8398 58.7039 22.5862C58.0299 22.3393 57.4294 21.9823 56.9022 21.5152C56.3817 21.0481 55.9647 20.4809 55.6511 19.8137C55.3374 19.1464 55.1806 18.3957 55.1806 17.5616C55.1806 16.6874 55.3308 15.87 55.631 15.1093C55.9313 14.3419 56.3517 13.6746 56.8922 13.1074C57.4394 12.5402 58.09 12.0931 58.844 11.7662C59.5981 11.4392 60.4288 11.2757 61.3363 11.2757ZM61.2162 13.9382C60.9426 13.9382 60.6891 13.9983 60.4555 14.1184C60.2286 14.2318 60.0185 14.3986 59.8249 14.6188C59.6381 14.8324 59.4746 15.0926 59.3345 15.3996C59.1944 15.6998 59.0809 16.0335 58.9942 16.4005C59.6815 16.2804 60.252 16.1536 60.7058 16.0201C61.1595 15.8867 61.5232 15.7532 61.7968 15.6198C62.0704 15.4796 62.2639 15.3428 62.3773 15.2094C62.4908 15.0692 62.5475 14.9358 62.5475 14.809C62.5475 14.6889 62.5008 14.5755 62.4073 14.4687C62.3206 14.3619 62.2105 14.2685 62.077 14.1884C61.9436 14.1084 61.7968 14.0483 61.6366 14.0083C61.4831 13.9616 61.343 13.9382 61.2162 13.9382Z" fill="#3753B9"/>
<path d="M77.5591 1.59812C77.6581 1.59633 77.7076 1.59543 77.7076 1.59543L77.8656 1.63191C78.0646 1.67784 78.2415 1.79264 78.3963 1.97631C78.5538 2.14828 78.6884 2.41972 78.8 2.79065C78.8747 3.05444 78.9764 3.44156 79.1051 3.95203C79.2455 4.4652 79.3953 5.01753 79.5546 5.60903C79.7139 6.20053 79.8718 6.79787 80.0284 7.40107C80.1877 7.99257 80.3281 8.50574 80.4496 8.94058L84.5229 4.59264L91.7989 4.79318C91.8601 4.79499 91.9141 4.80129 91.9609 4.8121C92.0221 4.81391 92.082 4.82157 92.1405 4.83508C92.398 4.89452 92.5038 5.02372 92.4578 5.22267C92.4416 5.29289 92.4024 5.38247 92.3403 5.4914C92.2926 5.59132 92.2188 5.69755 92.1188 5.81007L87.6323 10.7468L85.8698 12.6142C85.3494 13.1597 84.7889 13.7453 84.1884 14.3709C83.5995 14.9993 83.0436 15.5921 82.5205 16.1493C82.6501 16.549 82.7648 16.933 82.8647 17.3012C82.9763 17.6721 83.0713 18.0084 83.1495 18.31C83.2395 18.6143 83.3084 18.8767 83.3561 19.0973C83.4155 19.3206 83.4623 19.4916 83.4965 19.6105L85.894 28.6882L85.6913 29.3256C85.6832 29.3607 85.591 29.4133 85.4145 29.4835C85.2407 29.542 85.0103 29.6059 84.7231 29.6752C84.4476 29.7472 84.1298 29.8156 83.7697 29.8804C83.4212 29.9479 83.058 29.9996 82.6799 30.0356L81.3362 30.1691C81.184 30.134 81.0062 30.13 80.8028 30.1569C80.6083 30.1983 80.4116 30.1961 80.2126 30.1501C80.0488 30.1123 79.9003 30.0349 79.767 29.9178C79.6428 29.8152 79.5316 29.6293 79.4335 29.3601C79.2535 28.9117 79.0605 28.3864 78.8543 27.7841C78.6482 27.1818 78.4363 26.498 78.2185 25.7328L77.0737 21.8813L73.2179 25.9281L72.5521 26.3291C72.5323 26.3615 72.4135 26.3957 72.1956 26.4317C71.9804 26.456 71.6955 26.4888 71.3408 26.5302C71.0005 26.5626 70.6165 26.5972 70.1889 26.6341C69.7612 26.6709 69.3349 26.702 68.91 26.7271C68.4968 26.755 68.098 26.7739 67.7135 26.7837C67.3264 26.8053 67.0091 26.8183 66.7615 26.8228C66.6211 26.7904 66.4081 26.7782 66.1228 26.7863C65.8491 26.7971 65.6127 26.7795 65.4138 26.7336C65.3085 26.7092 65.2261 26.6656 65.1667 26.6025C65.1046 26.5512 65.0843 26.4787 65.1059 26.3851C65.1302 26.2798 65.2248 26.1105 65.3896 25.8774C65.5543 25.6442 65.7637 25.3782 66.0176 25.0794C66.2742 24.7688 66.5551 24.433 66.8603 24.072C67.1773 23.7137 67.4942 23.3555 67.8111 22.9972C68.1281 22.6389 68.4351 22.2968 68.7322 21.971C69.0293 21.6451 69.2864 21.3593 69.5034 21.1135C70.3308 20.1458 71.2087 19.1466 72.137 18.1159L74.9475 14.9926L71.3552 2.68057C71.2841 2.45459 71.2728 2.23627 71.3215 2.02561C71.3512 1.89688 71.4169 1.82576 71.5186 1.81227L77.5591 1.59812Z" fill="#EB70BE"/>
<path d="M92.0719 7.89258C92.0719 7.85254 92.0686 7.81584 92.0619 7.78247C92.0619 7.74911 92.0619 7.71574 92.0619 7.68238C92.0619 7.62232 92.0852 7.57228 92.132 7.53224C92.1787 7.48553 92.2921 7.43882 92.4723 7.39211L95.2849 6.72149C95.3583 6.70814 95.455 6.67811 95.5752 6.6314C95.6953 6.58469 95.812 6.56134 95.9255 6.56134C96.159 6.56134 96.2758 6.6681 96.2758 6.88164C96.2758 6.89498 96.2658 7.03178 96.2458 7.29202C96.2258 7.55226 96.1991 7.87589 96.1657 8.26292C96.1323 8.64995 96.0956 9.07367 96.0556 9.5341C96.0156 9.98786 95.9755 10.4216 95.9355 10.8353C95.8955 11.249 95.8588 11.6127 95.8254 11.9263C95.792 12.2333 95.7653 12.4335 95.7453 12.5269C96.0589 12.3534 96.3859 12.1899 96.7262 12.0364C97.0665 11.883 97.4069 11.7495 97.7472 11.6361C98.0942 11.5226 98.4378 11.4359 98.7781 11.3758C99.1251 11.3091 99.4588 11.2757 99.7791 11.2757C100.186 11.2757 100.566 11.3358 100.92 11.4559C101.274 11.5693 101.581 11.7628 101.841 12.0364C102.108 12.3033 102.315 12.657 102.462 13.0974C102.615 13.5312 102.692 14.065 102.692 14.6989C102.692 14.8591 102.688 15.0259 102.682 15.1994C102.675 15.3662 102.662 15.5397 102.642 15.7199L102.211 19.8137C102.178 20.0939 102.158 20.3875 102.151 20.6945C102.145 20.9948 102.141 21.305 102.141 21.6253C102.141 21.6787 102.141 21.7254 102.141 21.7655C102.148 21.7988 102.151 21.8289 102.151 21.8556C102.151 21.9156 102.125 21.9623 102.071 21.9957C102.024 22.0291 101.914 22.0724 101.741 22.1258L99.2886 22.8064C99.2152 22.8265 99.1184 22.8565 98.9983 22.8965C98.8782 22.9432 98.7615 22.9666 98.648 22.9666C98.5346 22.9666 98.4478 22.9399 98.3878 22.8865C98.3277 22.8398 98.2977 22.743 98.2977 22.5962C98.3444 22.0958 98.3811 21.6921 98.4078 21.3851C98.4412 21.0782 98.4645 20.8346 98.4779 20.6544C98.4979 20.4676 98.5146 20.3275 98.5279 20.234C98.5412 20.134 98.5513 20.0472 98.5579 19.9738C98.5646 19.8937 98.5746 19.807 98.588 19.7136C98.6013 19.6135 98.6146 19.47 98.628 19.2832C98.648 19.0963 98.6714 18.8494 98.6981 18.5425C98.7314 18.2355 98.7715 17.8318 98.8182 17.3314C98.8449 17.0644 98.8716 16.8009 98.8982 16.5406C98.9316 16.2737 98.9483 16.0301 98.9483 15.8099C98.9483 15.5297 98.9316 15.2761 98.8982 15.0492C98.8716 14.8157 98.8182 14.6188 98.7381 14.4587C98.6647 14.2919 98.5613 14.1617 98.4278 14.0683C98.2944 13.9749 98.1242 13.9282 97.9173 13.9282C97.7639 13.9282 97.5537 13.9616 97.2867 14.0283C97.0265 14.095 96.7629 14.2051 96.496 14.3586C96.2358 14.5121 96.0022 14.7156 95.7954 14.9692C95.5952 15.2161 95.4817 15.523 95.455 15.89C95.4017 16.4038 95.3583 16.8242 95.3249 17.1512C95.2982 17.4782 95.2749 17.7484 95.2549 17.9619C95.2348 18.1755 95.2182 18.3456 95.2048 18.4724C95.1981 18.5992 95.1915 18.716 95.1848 18.8227C95.1781 18.8561 95.1681 18.9395 95.1548 19.073C95.1414 19.1998 95.1247 19.3532 95.1047 19.5334C95.0847 19.7136 95.0647 19.9071 95.0447 20.1139C95.0246 20.3141 95.0046 20.5043 94.9846 20.6845C94.9713 20.8646 94.9579 21.0214 94.9446 21.1549C94.9379 21.2817 94.9346 21.3618 94.9346 21.3951C94.9346 21.4485 94.9346 21.4952 94.9346 21.5353C94.9412 21.5686 94.9446 21.602 94.9446 21.6354C94.9446 21.6887 94.9179 21.7354 94.8645 21.7755C94.8178 21.8088 94.7077 21.8489 94.5342 21.8956L91.9218 22.8064C91.8484 22.8331 91.7516 22.8665 91.6315 22.9065C91.5114 22.9466 91.3946 22.9666 91.2812 22.9666C91.1811 22.9666 91.0977 22.9366 91.0309 22.8765C90.9642 22.8231 90.9308 22.7297 90.9308 22.5962L92.0719 7.89258ZM110.189 11.2757C110.823 11.2757 111.397 11.3958 111.91 11.6361C112.431 11.8696 112.875 12.1766 113.242 12.5569C113.615 12.9306 113.902 13.351 114.102 13.8181C114.303 14.2852 114.403 14.7523 114.403 15.2194C114.403 15.6331 114.276 16.0502 114.022 16.4706C113.769 16.8843 113.412 17.2579 112.951 17.5916C112.498 17.9252 111.95 18.1955 111.31 18.4023C110.669 18.6092 109.965 18.7126 109.198 18.7126C108.797 18.7126 108.377 18.6726 107.937 18.5925C107.963 18.8795 108.047 19.1264 108.187 19.3332C108.327 19.5401 108.504 19.7102 108.717 19.8437C108.931 19.9771 109.171 20.0772 109.438 20.144C109.712 20.204 109.992 20.234 110.279 20.234C110.599 20.234 110.906 20.2074 111.2 20.154C111.5 20.0939 111.787 20.0172 112.06 19.9238C112.334 19.8303 112.598 19.7269 112.851 19.6135C113.105 19.5 113.345 19.3866 113.572 19.2732C113.632 19.2598 113.682 19.2498 113.722 19.2431C113.769 19.2298 113.812 19.2231 113.852 19.2231C113.852 19.2231 113.849 19.2765 113.842 19.3833C113.842 19.49 113.842 19.6402 113.842 19.8337C113.842 20.0272 113.839 20.2607 113.832 20.5343C113.832 20.8079 113.829 21.1115 113.822 21.4452C113.842 21.4785 113.855 21.5119 113.862 21.5453C113.869 21.5786 113.872 21.6053 113.872 21.6253C113.872 21.7054 113.799 21.7922 113.652 21.8856C113.505 21.979 113.312 22.0758 113.071 22.1759C112.838 22.2759 112.568 22.3727 112.261 22.4661C111.96 22.5595 111.653 22.643 111.34 22.7164C111.026 22.7964 110.723 22.8565 110.429 22.8965C110.135 22.9432 109.878 22.9666 109.658 22.9666C108.938 22.9666 108.237 22.8398 107.556 22.5862C106.882 22.3393 106.282 21.9823 105.755 21.5152C105.234 21.0481 104.817 20.4809 104.503 19.8137C104.19 19.1464 104.033 18.3957 104.033 17.5616C104.033 16.6874 104.183 15.87 104.483 15.1093C104.784 14.3419 105.204 13.6746 105.745 13.1074C106.292 12.5402 106.942 12.0931 107.696 11.7662C108.45 11.4392 109.281 11.2757 110.189 11.2757ZM110.069 13.9382C109.795 13.9382 109.541 13.9983 109.308 14.1184C109.081 14.2318 108.871 14.3986 108.677 14.6188C108.49 14.8324 108.327 15.0926 108.187 15.3996C108.047 15.6998 107.933 16.0335 107.847 16.4005C108.534 16.2804 109.104 16.1536 109.558 16.0201C110.012 15.8867 110.376 15.7532 110.649 15.6198C110.923 15.4796 111.116 15.3428 111.23 15.2094C111.343 15.0692 111.4 14.9358 111.4 14.809C111.4 14.6889 111.353 14.5755 111.26 14.4687C111.173 14.3619 111.063 14.2685 110.929 14.1884C110.796 14.1084 110.649 14.0483 110.489 14.0083C110.336 13.9616 110.195 13.9382 110.069 13.9382ZM125.873 20.4342C125.867 20.4609 125.863 20.4876 125.863 20.5143C125.863 20.5343 125.863 20.5543 125.863 20.5744C125.863 20.7412 125.89 20.8813 125.943 20.9948C125.997 21.1015 126.053 21.1916 126.114 21.265C126.18 21.3317 126.24 21.3885 126.294 21.4352C126.347 21.4752 126.374 21.5119 126.374 21.5453C126.374 21.6387 126.274 21.7254 126.074 21.8055L123.381 22.9566C123.374 22.9633 123.351 22.9666 123.311 22.9666C123.258 22.9666 123.204 22.9199 123.151 22.8265C123.097 22.733 123.044 22.6129 122.991 22.4661C122.944 22.326 122.897 22.1759 122.851 22.0157C122.81 21.8489 122.774 21.6954 122.74 21.5553C122.32 22.0424 121.866 22.3994 121.379 22.6263C120.892 22.8532 120.408 22.9666 119.928 22.9666C119.367 22.9666 118.82 22.8431 118.286 22.5962C117.752 22.3493 117.279 21.999 116.865 21.5453C116.451 21.0848 116.118 20.531 115.864 19.8837C115.617 19.2365 115.494 18.5091 115.494 17.7017C115.494 16.7475 115.63 15.8767 115.904 15.0893C116.184 14.3019 116.561 13.6246 117.035 13.0574C117.509 12.4902 118.059 12.0531 118.687 11.7462C119.321 11.4325 119.991 11.2757 120.699 11.2757C121.199 11.2757 121.673 11.3792 122.12 11.586C122.567 11.7862 122.991 12.0464 123.391 12.3667C123.431 12.1665 123.454 12.0064 123.461 11.8863C123.468 11.7662 123.481 11.6728 123.501 11.606C123.528 11.5393 123.575 11.4959 123.641 11.4759C123.708 11.4492 123.818 11.4292 123.972 11.4159C124.452 11.3491 124.929 11.2891 125.403 11.2357C125.883 11.1756 126.384 11.1323 126.904 11.1056L125.873 20.4342ZM122.881 16.6607C122.947 16.2804 122.991 15.9234 123.011 15.5897C123.037 15.2494 123.057 14.9391 123.071 14.6589C122.964 14.5788 122.847 14.4954 122.72 14.4086C122.6 14.3219 122.467 14.2418 122.32 14.1684C122.18 14.0883 122.03 14.0249 121.87 13.9782C121.716 13.9315 121.553 13.9082 121.379 13.9082C121.019 13.9082 120.715 14.0249 120.468 14.2585C120.228 14.492 120.031 14.779 119.878 15.1193C119.731 15.4596 119.624 15.8199 119.557 16.2003C119.497 16.5807 119.467 16.9176 119.467 17.2112C119.467 18.2656 119.604 19.0396 119.878 19.5334C120.158 20.0205 120.545 20.2641 121.039 20.2641C121.239 20.2641 121.463 20.2074 121.709 20.0939C121.956 19.9805 122.207 19.8237 122.46 19.6235L122.881 16.6607ZM135.722 16.7508C135.743 16.5373 135.763 16.3137 135.783 16.0802C135.809 15.8466 135.839 15.6031 135.873 15.3495C135.719 14.9491 135.502 14.6255 135.222 14.3786C134.942 14.125 134.591 13.9983 134.171 13.9983C133.757 13.9983 133.407 14.1184 133.12 14.3586C132.833 14.5921 132.603 14.8824 132.429 15.2294C132.256 15.5764 132.129 15.9434 132.049 16.3304C131.976 16.7108 131.939 17.0478 131.939 17.3414C131.939 17.7017 131.959 18.0587 131.999 18.4124C132.046 18.766 132.116 19.0863 132.209 19.3732C132.309 19.6602 132.439 19.8937 132.6 20.0739C132.76 20.2474 132.96 20.3341 133.2 20.3341C133.787 20.3141 134.264 20.1807 134.631 19.9338C134.998 19.6869 135.292 19.3866 135.512 19.0329L135.722 16.7508ZM139.216 21.4352C139.216 21.4485 139.212 21.4652 139.206 21.4852C139.206 21.4986 139.206 21.5119 139.206 21.5252C139.206 21.5586 139.206 21.5853 139.206 21.6053C139.212 21.6253 139.216 21.6454 139.216 21.6654C139.216 21.7254 139.192 21.7755 139.146 21.8155C139.106 21.8489 138.996 21.8889 138.815 21.9356L136.133 22.8064C136.059 22.8331 135.963 22.8665 135.843 22.9065C135.722 22.9466 135.606 22.9666 135.492 22.9666C135.399 22.9666 135.315 22.9432 135.242 22.8965C135.175 22.8498 135.142 22.7631 135.142 22.6363C135.142 22.5162 135.142 22.4194 135.142 22.346C135.149 22.2726 135.152 22.2059 135.152 22.1458C135.159 22.0791 135.165 22.009 135.172 21.9356C135.185 21.8622 135.199 21.7655 135.212 21.6454C134.712 22.0457 134.194 22.366 133.661 22.6063C133.133 22.8465 132.576 22.9666 131.989 22.9666C131.348 22.9666 130.778 22.8131 130.277 22.5062C129.784 22.2059 129.367 21.8022 129.026 21.295C128.686 20.7812 128.426 20.1973 128.246 19.5434C128.072 18.8828 127.985 18.1955 127.985 17.4815C127.985 16.554 128.135 15.7098 128.436 14.9491C128.743 14.1818 129.156 13.5278 129.677 12.9873C130.197 12.4401 130.805 12.0197 131.499 11.7261C132.193 11.4259 132.93 11.2757 133.711 11.2757C134.131 11.2757 134.531 11.3858 134.912 11.606C135.299 11.8262 135.662 12.1098 136.003 12.4568C136.023 12.1298 136.046 11.7762 136.073 11.3958C136.099 11.0088 136.126 10.6184 136.153 10.2247C136.18 9.82437 136.206 9.43067 136.233 9.04365C136.26 8.65662 136.283 8.30296 136.303 7.98266C136.303 7.9226 136.323 7.87589 136.363 7.84253C136.41 7.80249 136.523 7.75912 136.703 7.71241L139.516 7.04178C139.589 7.02844 139.686 6.99841 139.806 6.9517C139.926 6.90499 140.043 6.88164 140.157 6.88164C140.243 6.88164 140.323 6.90165 140.397 6.94169C140.477 6.98173 140.517 7.05847 140.517 7.17191C140.517 7.18525 140.514 7.21528 140.507 7.26199C140.507 7.30203 140.507 7.32872 140.507 7.34206L139.216 21.4352ZM147.423 11.2757C148.057 11.2757 148.631 11.3958 149.145 11.6361C149.665 11.8696 150.109 12.1766 150.476 12.5569C150.85 12.9306 151.137 13.351 151.337 13.8181C151.537 14.2852 151.637 14.7523 151.637 15.2194C151.637 15.6331 151.51 16.0502 151.257 16.4706C151.003 16.8843 150.646 17.2579 150.186 17.5916C149.732 17.9252 149.185 18.1955 148.544 18.4023C147.904 18.6092 147.2 18.7126 146.432 18.7126C146.032 18.7126 145.612 18.6726 145.171 18.5925C145.198 18.8795 145.281 19.1264 145.421 19.3332C145.562 19.5401 145.738 19.7102 145.952 19.8437C146.166 19.9771 146.406 20.0772 146.673 20.144C146.946 20.204 147.227 20.234 147.513 20.234C147.834 20.234 148.141 20.2074 148.434 20.154C148.735 20.0939 149.022 20.0172 149.295 19.9238C149.569 19.8303 149.832 19.7269 150.086 19.6135C150.339 19.5 150.58 19.3866 150.807 19.2732C150.867 19.2598 150.917 19.2498 150.957 19.2431C151.003 19.2298 151.047 19.2231 151.087 19.2231C151.087 19.2231 151.083 19.2765 151.077 19.3833C151.077 19.49 151.077 19.6402 151.077 19.8337C151.077 20.0272 151.073 20.2607 151.067 20.5343C151.067 20.8079 151.063 21.1115 151.057 21.4452C151.077 21.4785 151.09 21.5119 151.097 21.5453C151.103 21.5786 151.107 21.6053 151.107 21.6253C151.107 21.7054 151.033 21.7922 150.887 21.8856C150.74 21.979 150.546 22.0758 150.306 22.1759C150.072 22.2759 149.802 22.3727 149.495 22.4661C149.195 22.5595 148.888 22.643 148.574 22.7164C148.261 22.7964 147.957 22.8565 147.664 22.8965C147.37 22.9432 147.113 22.9666 146.893 22.9666C146.172 22.9666 145.472 22.8398 144.791 22.5862C144.117 22.3393 143.516 21.9823 142.989 21.5152C142.469 21.0481 142.052 20.4809 141.738 19.8137C141.424 19.1464 141.268 18.3957 141.268 17.5616C141.268 16.6874 141.418 15.87 141.718 15.1093C142.018 14.3419 142.439 13.6746 142.979 13.1074C143.526 12.5402 144.177 12.0931 144.931 11.7662C145.685 11.4392 146.516 11.2757 147.423 11.2757ZM147.303 13.9382C147.03 13.9382 146.776 13.9983 146.543 14.1184C146.316 14.2318 146.105 14.3986 145.912 14.6188C145.725 14.8324 145.562 15.0926 145.421 15.3996C145.281 15.6998 145.168 16.0335 145.081 16.4005C145.768 16.2804 146.339 16.1536 146.793 16.0201C147.247 15.8867 147.61 15.7532 147.884 15.6198C148.157 15.4796 148.351 15.3428 148.464 15.2094C148.578 15.0692 148.634 14.9358 148.634 14.809C148.634 14.6889 148.588 14.5755 148.494 14.4687C148.408 14.3619 148.298 14.2685 148.164 14.1884C148.031 14.1084 147.884 14.0483 147.724 14.0083C147.57 13.9616 147.43 13.9382 147.303 13.9382ZM161.076 14.2985C160.936 14.2852 160.779 14.2718 160.606 14.2585C160.432 14.2385 160.249 14.2285 160.055 14.2285C159.761 14.2285 159.461 14.2552 159.154 14.3085C158.854 14.3553 158.574 14.452 158.313 14.5988C158.053 14.7456 157.83 14.9491 157.643 15.2094C157.456 15.4629 157.336 15.7933 157.283 16.2003C157.236 16.6941 157.196 17.1011 157.162 17.4214C157.136 17.7351 157.116 17.9953 157.102 18.2022C157.089 18.4023 157.076 18.5658 157.062 18.6926C157.056 18.8127 157.049 18.9262 157.042 19.0329C157.042 19.0596 157.036 19.133 157.022 19.2531C157.016 19.3732 157.002 19.5134 156.982 19.6735C156.962 19.8337 156.942 20.0072 156.922 20.194C156.909 20.3809 156.892 20.5543 156.872 20.7145C156.852 20.8746 156.835 21.0148 156.822 21.1349C156.815 21.255 156.812 21.3284 156.812 21.3551C156.812 21.4085 156.812 21.4552 156.812 21.4952C156.819 21.5286 156.822 21.562 156.822 21.5953C156.822 21.6487 156.795 21.6954 156.742 21.7354C156.695 21.7688 156.585 21.8088 156.412 21.8556L153.759 22.8064C153.686 22.8331 153.589 22.8665 153.469 22.9065C153.349 22.9466 153.232 22.9666 153.119 22.9666C153.025 22.9666 152.942 22.9432 152.868 22.8965C152.802 22.8498 152.768 22.7697 152.768 22.6563L153.629 12.7371C153.649 12.5169 153.672 12.3667 153.699 12.2867C153.733 12.1999 153.809 12.1432 153.929 12.1165C154.537 11.9964 155.164 11.8763 155.811 11.7562C156.458 11.6294 157.086 11.4692 157.693 11.2757C157.746 11.2757 157.776 11.2857 157.783 11.3057C157.796 11.3191 157.803 11.3424 157.803 11.3758C157.803 11.3892 157.8 11.4092 157.793 11.4359C157.793 11.4626 157.783 11.5226 157.763 11.616C157.75 11.7095 157.726 11.8529 157.693 12.0464C157.666 12.2333 157.626 12.4969 157.573 12.8372C157.88 12.5969 158.217 12.3767 158.584 12.1766C158.957 11.9764 159.331 11.8062 159.705 11.6661C160.078 11.5193 160.439 11.4058 160.786 11.3258C161.133 11.239 161.436 11.1956 161.697 11.1956L161.076 14.2985Z" fill="#3753B9"/>
</svg>
