<svg width="268" height="65" viewBox="0 0 268 65" fill="none" xmlns="http://www.w3.org/2000/svg">
<path d="M160.723 0.692397C170.765 0.0849938 182.92 -0.683453 194.124 1.13501C195.294 1.32642 196.452 1.53683 197.591 1.76784C198.903 2.03392 198.632 3.79551 198.977 4.06748C199.921 4.81742 200.75 2.79322 201.469 3.02341C204.968 4.13607 208.24 4.78677 211.611 5.8112C215.079 6.86238 212.845 12.1948 213.942 13.6608C216.086 16.5284 214.759 9.14485 215.862 7.62722C218.559 8.33079 221.235 9.372 223.884 10.4032C223.161 11.0149 222.434 11.6108 221.702 12.1701C222.878 12.428 224.488 13.6899 222.318 15.3873C222.714 15.9448 223.073 16.5869 223.483 17.1325C223.843 14.5277 225.97 14.5011 226.293 12.9644C226.616 11.4285 225.407 11.6841 225.426 11.549C225.673 9.62746 230.269 12.6681 230.603 12.9049C231.477 13.549 230.424 16.7355 231.225 16.5856C232.608 16.3282 232.173 9.65307 233.377 18.5707C234.304 15.766 234.262 17.2532 235.17 17.512C235.289 17.5446 235.304 15.8849 235.36 15.8452C236.824 14.7073 235.562 17.7139 235.557 17.8809C235.501 20.7195 237.084 19.5556 237.381 19.8449C240.446 22.7912 242.908 24.9444 245.996 26.1307C246.027 26.1256 246.119 26.142 246.149 26.1377C246.889 26.4281 247.659 26.6762 248.484 26.8859C249.425 27.1126 252.602 26.2801 253.604 26.946C254.545 27.5805 253.666 29.5077 253.991 30.5609C255.621 25.878 257.066 25.5493 258.169 29.3871C259.248 27.7928 259.513 27.7905 259.712 28.1209C259.909 28.4345 260.052 29.0092 260.999 29.1327C261.811 29.2388 263.534 28.8588 265.101 29.341C266.652 29.7947 267.767 30.9488 266.746 32.6892C265.78 30.8694 264.438 31.9238 262.046 31.3138C261.705 31.2216 260.251 30.3527 258.822 30.1636C256.906 29.8411 255.045 30.4356 254.823 32.4938C254.567 34.3746 256.527 33.1289 256.502 33.5161C256.055 35.5419 254.592 37.6733 254.279 36.6848C254.538 36.3248 254.835 35.9723 255.13 35.63C254.219 32.7193 253.106 42.6035 253.761 33.929C253.804 32.8609 254.083 31.7922 253.995 30.6341C253.855 31.0801 253.988 32.2756 253.655 32.4233C253.334 32.5738 253.089 30.3211 252.723 32.1291C252.199 34.7537 253.535 33.9067 253.596 34.0844C253.6 34.0687 253.604 34.053 253.608 34.0373C254.08 35.5775 252.503 35.4391 252.389 35.6883C251.658 37.2636 251.778 38.5786 250.923 39.8506C250.45 40.576 249.5 40.0026 249.086 40.2189C248.686 40.4409 249.145 41.7585 248.867 42.0046C248.597 42.2514 248.37 41.2639 248.036 41.5518C247.895 41.6792 247.784 43.0879 247.719 43.132C247.005 43.6196 247.689 40.7255 247.045 40.8564C246.629 40.9432 245.086 43.59 245.97 44.465C245.653 44.6371 245.355 44.7766 245.039 44.9092L245.387 44.9251C245.222 44.9914 245.056 45.0561 244.89 45.122C245.044 45.3389 245.203 45.5216 245.361 45.7139L244.992 45.697C245.125 45.8898 245.252 46.092 245.37 46.3453C245.228 46.2132 245.092 46.1852 244.961 46.2286L245.344 46.2461C244.689 46.4529 244.248 48.0796 243.745 48.2081C243.128 48.3645 242.706 45.4439 241.983 46.8297C240.43 49.7775 244.017 48.5365 244.44 49.0845C244.605 49.302 243.863 51.5499 243.757 51.6108C243.291 51.8781 242.821 50.2331 242.471 50.2917C241.217 50.5121 240.357 52.6199 239.145 52.9932C235.02 54.2645 229.941 55.1158 226.13 55.2822C224.708 55.3431 224.066 52.8689 223.435 52.8843C221.959 52.9207 221.599 54.9987 220.312 54.9973C218.395 55.0018 215.909 52.9259 214.386 52.3805C213.329 52.0051 212.155 53.9327 211.867 53.9541C207.887 54.2941 203.19 53.7556 200.025 53.4476C198.534 53.3032 198.07 50.9562 197.757 50.9908C196.414 51.1358 196.559 53.1159 195.519 52.8087C194.957 52.6444 195.044 50.7673 194.975 50.6865C194.362 50.001 193.978 52.424 193.443 52.4493C191.918 52.5231 190.477 52.0924 189.061 51.5787C187.782 51.0753 186.539 50.5003 185.25 50.2873C185.066 50.2552 185.161 49.1741 185.035 49.2208C184.492 49.4497 184.615 51.1711 184.071 51.2594C182.935 51.452 181.805 51.1101 180.611 50.8474C180.493 50.8216 180.49 49.4253 180.214 49.4149C179.94 49.4053 179.687 50.7198 179.257 50.6334C178.134 50.4093 177.034 48.8075 175.794 48.7122C175.588 48.6985 175.324 50.3775 175.023 50.3584C174.062 50.2992 172.624 48.7837 171.769 48.741C168.977 48.6076 166.386 49.65 163.691 49.7816C163.065 49.8086 162.406 48.2814 162.082 48.2602C161.33 48.2174 161.97 49.6583 161.206 49.7033C158.233 49.8743 155.221 49.9201 152.158 49.9962C148.84 50.078 145.452 50.1948 142.053 50.542C139.496 50.8001 136.499 52.591 133.97 52.3965C132.915 52.3113 132.543 50.3028 131.809 50.3507C130.496 50.4462 130.494 53.0649 129.137 53.4508C128.045 53.7564 126.55 51.2808 125.405 51.5492C124.275 51.8164 123.972 54.3845 122.681 54.8105C121.616 55.1591 119.984 54.1612 118.811 54.4591C108.075 57.1946 97.3765 59.285 86.0815 58.338C82.1845 58.0103 77.9526 58.7252 73.7585 56.7652C73.6652 56.7219 73.5721 56.6773 73.479 56.6313C73.0756 56.4299 73.451 53.947 72.2694 54.563C71.6376 54.8961 70.8943 57.0713 69.3816 57.3036C60.3713 58.6787 50.386 54.9211 41.2783 56.437C31.7177 58.0374 22.2899 67.4423 12.9674 64.3937C8.97789 63.0943 5.10702 59.5366 0.967366 52.1413C0.722739 51.5359 -0.293319 49.706 0.0825034 47.7989C0.495468 45.8902 0.447633 43.9183 0.611153 43.0416C1.00837 44.2656 1.39584 45.7224 1.81105 47.1051C1.8268 39.4471 1.84962 41.4401 3.472 42.0371C4.4654 42.4085 3.51301 39.1867 3.97524 38.2313C4.57881 36.9964 7.52406 33.0477 7.19551 38.1377C7.3383 37.2504 7.47401 36.4004 7.62161 35.5314C8.84042 35.0427 10.0368 34.405 11.2258 33.6694C12.1879 33.061 13.1901 32.3827 14.1446 31.6686C14.52 31.3927 14.4482 29.8054 14.8247 29.5299C15.8572 28.7773 16.7707 29.7699 17.8467 29.546C18.4466 29.4242 18.4133 27.5871 19.2013 27.6583C20.0029 27.7293 20.1104 30.2058 21.0259 27.4527C20.1546 24.3897 23.3612 26.4578 24.4612 26.1978C24.6082 26.1641 25.7657 23.2937 26.4634 23.5718C27.1829 23.8428 28.3419 25.5583 29.3686 24.4777C29.8378 23.9708 30.003 21.7801 30.5422 21.6213C30.9258 21.5099 31.5024 23.4106 31.9926 23.4595C32.4842 23.5081 33.4304 21.8551 33.6177 21.8165C34.3035 21.666 33.6283 23.0731 34.1074 23.1101C36.4168 23.2675 39.1275 23.8136 41.3228 22.7432C41.5911 22.6133 41.0977 21.0419 41.1307 20.9861C42.8711 18.894 42.016 21.046 42.6262 22.441C43.2139 23.7909 46.7645 22.7777 46.5915 19.9973C46.9578 23.4672 47.5624 20.7525 47.7614 20.6353C48.5399 20.1818 48.6027 23.2025 49.3238 22.2134C49.5878 21.8531 48.8739 19.861 49.1896 19.8976C49.9576 19.9895 50.8924 23.2051 51.9384 23.4551C52.1891 23.5168 52.1583 22.0556 52.5983 22.0719C53.0397 22.089 55.0118 23.7285 53.9319 20.7245C55.2247 23.0989 55.3549 21.7312 56.6495 21.6986C56.9773 21.6938 57.5817 24.0055 58.2254 23.2233C58.4424 22.9579 58.2601 20.6984 58.611 20.652C59.4115 20.5396 60.3703 22.8172 61.4061 22.8267C63.3453 22.85 65.2691 21.0364 67.3166 21.4533C67.8758 21.5679 67.9354 23.8502 68.7311 23.827C68.8473 23.8172 69.6337 21.7721 70.1998 21.9094C70.2959 21.9327 70.5108 22.0474 70.7784 22.2019C71.4526 22.5959 72.4688 23.2467 72.7245 23.3045C73.3123 23.4322 73.2229 21.2272 73.5715 21.6294C74.5821 22.7879 74.1436 26.0839 74.8406 21.5661C75.4151 23.9855 76.0338 23.6833 76.5048 26.6826C76.5796 23.3431 77.3432 26.4771 77.9644 25.3048C78.5872 24.1314 78.5937 17.6748 79.3919 24.5491C79.6509 23.6814 80.9546 22.1219 81.1855 21.9951C81.8684 21.6349 81.6632 23.5753 82.1762 23.2687C82.2669 23.2169 82.048 21.923 82.6667 21.9957C83.0747 22.0455 85.9972 21.8554 86.1903 22.0171C88.3687 23.8715 85.226 23.4105 84.9261 24.8603C84.8158 24.497 84.7063 24.1323 84.5914 23.7738C83.6565 23.2397 84.4282 26.1373 84.8902 26.7837C85.3521 27.4299 85.9761 26.0493 86.3981 26.9848C86.6088 27.4546 86.8347 30.9933 86.2942 30.6136C86.9312 31.6509 86.306 32.8667 86.6129 33.8686C86.9514 34.967 89.3904 35.0869 89.2216 33.141C88.7653 33.1155 88.212 33.235 87.7503 33.1974C86.8424 29.8731 87.565 18.1643 89.6484 22.6194C91.1611 25.8424 89.4338 28.6816 92.0087 25.6135C91.5595 25.5193 91.1601 25.2386 90.7503 25.1344C90.4691 22.6042 91.3751 25.33 91.631 24.4924C91.753 24.0832 90.6017 22.3815 91.3977 21.7039C92.4729 25.2585 92.692 21.56 93.9169 21.4002C93.6367 22.0789 93.3556 22.7543 93.0752 23.433C95.4028 25.8639 90.6566 27.1888 94.8391 28.2761C94.3635 28.4392 93.8764 28.4541 93.4043 28.6787C93.7674 29.986 93.7578 33.9252 94.0483 34.7298C94.8107 36.8416 95.5118 35.4585 96.2093 35.5839C96.5144 35.6356 96.4302 36.707 96.4558 36.7107C96.8743 36.7887 96.6373 35.2526 96.9852 35.1201C97.423 34.9543 98.8653 36.332 99.0597 36.1407C99.5628 35.6517 98.3644 32.6902 98.3952 32.4574C98.6015 30.9478 99.4275 32.1044 99.2056 30.1767C97.6254 31.6694 92.5488 30.4304 96.6904 26.8131C95.1677 23.8095 95.1123 19.4739 96.8402 18.9674C98.27 18.5451 97.4945 20.3586 98.4342 22.1817C98.5545 22.4097 100.594 23.1291 100.566 21.7794C100.783 24.8732 101.681 27.5453 101.559 30.7704C101.542 31.2441 100.722 31.1364 101.247 33.6698C101.51 34.9424 102.18 37.7029 102.272 39.3463C102.328 38.1921 102.377 36.8949 102.431 35.6914C103.6 35.244 103.889 36.4538 104.75 38.5139C104.635 37.6306 103.671 33.965 104.701 35.0089C104.755 35.0721 104.924 36.4047 105.456 37.0228C106.529 38.2612 106.767 38.6555 106.417 42.6501C108.165 40.223 109.003 44.5572 110.892 43.0851C110.01 38.0777 109.419 39.3951 107.675 40.5438C107.48 39.3515 107.328 38.1673 107.129 36.963C109.839 39.4478 108.602 39.2869 109.757 36.7173C110.04 36.0876 111.909 36.5532 110.98 33.2138C110.762 32.4281 109.646 32.6279 109.654 31.3554C109.657 31.1129 110.963 30.3717 111.117 30.6855C113.017 34.5592 110.58 37.6187 114.606 35.7558C114.717 35.7018 114.617 34.229 114.822 34.0032C115.208 33.5814 115.375 35.2827 115.714 34.854C116.052 34.4244 116.357 32.0857 117.126 34.1476C118.529 37.902 116.296 40.3502 115.014 38.4108C115.056 43.4861 122.824 42.8602 123.266 42.3859C125.188 40.3121 121.794 41.7235 121.485 40.344C121.355 39.7602 120.686 32.2669 120.26 37.2104C120.134 38.6753 121.407 40.4697 120.83 41.3254C120.252 42.1811 120.302 39.9514 120.24 39.802C120.028 39.2899 119.408 40.1736 119.288 39.8693C117.456 35.2551 116.899 28.0725 119.743 38.4908C120.319 36.0205 118.114 32.3789 118.959 30.6593C119.988 28.5693 121.186 31.9022 121.356 32.0415C123.356 33.6909 120.783 28.9024 123.159 30.2867C124.479 31.0574 121.615 33.7784 124.416 33.1876C126.761 32.6899 125.319 31.0734 125.126 27.1112C125.08 26.1842 126.273 24.9317 124.543 25.5019C124.589 26.5344 124.62 27.8979 124.596 28.8563C124.093 28.1462 122.882 23.0701 122.636 22.9117C121.431 22.1614 121.735 24.8265 120.772 21.7446C121.572 25.1398 120.602 23.1398 120.378 23.8936C119.556 26.6717 121.064 27.5332 118.319 24.322C118.788 25.9047 119.223 27.4604 119.679 29.0381C119.395 29.1208 119.11 29.205 118.824 29.2879C118.051 25.7779 116.562 26.3775 117.613 22.67C115.844 21.8132 115.23 22.653 115.13 25.4503C115.11 25.9844 114.879 26.2191 114.588 26.2981C114.718 27.0696 115.018 29.463 115 29.7618C114.831 32.3903 113.756 27.9798 113.814 26.2517C113.599 26.1898 113.425 26.1097 113.363 26.0738C112.97 25.8438 113.544 24.2313 113.195 23.7306C113.08 23.5681 112.079 24.0027 111.999 23.377C111.488 19.3661 113.471 22.1053 109.827 20.0948C110.096 23.7645 111.607 22.8072 111.571 26.7358C111.535 30.9561 110.103 25.4369 110.401 30.5818C110.248 29.7459 110.149 29.0461 109.994 28.0926C108.829 30.4585 108.399 26.1908 107.887 25.2887C106.892 23.5271 103.149 24.1652 106.888 27.5391C106.429 27.9558 105.94 28.1751 105.479 28.5486C104.631 20.9052 105.225 23.9229 102.742 22.9811C102.195 22.7728 101.703 19.4226 101.575 23.4701C101.268 19.5413 99.9529 22.0585 99.763 21.5963C98.5442 18.5893 101.557 13.9524 102.664 20.8439C102.984 18.0886 103.324 21.6576 103.925 21.1226C104.791 20.35 104.857 19.6422 106.219 22.1698C106.954 18.354 101.788 20.9473 104.568 15.7118C107.327 10.4745 126.092 5.91399 130.536 4.78886C137.937 2.88606 142.138 1.68544 148.68 1.26749C149.221 1.23353 149.771 1.20554 150.332 1.18377C151.076 1.14309 156.716 0.439149 155.792 4.81332C155.65 5.43989 153.352 7.22097 155.612 10.4721C155.071 8.50406 156.215 7.13745 156.303 6.92227C158.39 2.02666 156.95 0.92597 160.723 0.692397ZM172.53 38.7775C168.13 37.8584 171.396 40.6903 170.616 47.2071C171.165 47.2152 171.696 47.2249 172.24 47.2371C172.093 46.8307 171.944 46.4259 171.799 46.0198C171.798 46.0198 171.798 46.0198 171.797 46.0198C172.027 43.6056 172.28 41.1909 172.53 38.7775ZM246.376 48.6471C246.164 49.4902 245.95 50.3353 245.729 51.16C245.398 50.9579 245.058 50.759 244.705 50.56L245.203 50.5828C244.996 50.4901 244.788 50.3971 244.58 50.3032C244.677 49.7252 244.772 49.1401 244.868 48.562C245.001 48.5708 245.135 48.5796 245.268 48.5879L244.823 48.5675C245.355 48.6177 245.863 48.6604 246.376 48.6471ZM114.461 39.4093C113.375 37.1224 113.859 41.3424 112.534 39.5254C112.972 42.6319 113.42 45.6691 113.863 48.7442C114.686 48.1996 114.766 46.9945 115.784 47.6669C115.578 46.6745 115.37 45.6765 115.166 44.6778C115.029 44.908 114.885 45.1687 114.751 45.3738C114.24 42.5909 115.71 42.028 114.463 39.4026C114.462 39.4048 114.461 39.4071 114.461 39.4093ZM105.781 41.5088C105.28 41.1469 103.3 39.7958 103.175 41.112C102.747 45.5752 107.651 42.2985 104.214 46.5597C104.29 47.1728 104.331 47.7769 104.389 48.3855C105.105 48.5342 105.816 48.6531 106.532 48.7584C106.262 46.3375 106.057 43.9415 105.781 41.5088ZM156.508 39.6725C155.792 39.3736 152.616 41.6609 153.885 44.3701C154.264 45.1621 155.451 41.0877 156.037 41.2251C156.405 41.3139 156.138 43.5211 156.796 42.6754C156.706 41.7153 156.622 40.6499 156.506 39.6791C156.507 39.6769 156.507 39.6747 156.508 39.6725ZM157.065 26.8935C156.342 27.3259 155.641 27.8632 154.921 28.3237C155.624 30.7748 156.565 29.1148 156.845 32.6098C156.657 32.8873 156.476 33.163 156.295 33.4403C156.097 32.6845 155.9 31.9281 155.701 31.1725C155.191 33.1124 155.625 34.0323 154.425 33.5582C155.468 38.8009 155.768 41.6282 157.429 36.1592C157.223 39.0514 158.131 48.3798 158.815 41.6363C158.947 40.3841 158.058 39.603 158.034 39.4064C157.76 36.9583 158.144 35.3637 157.87 33.052C157.747 32.0062 157.219 32.053 157.052 30.6014C156.973 29.893 157.363 27.8359 157.065 26.8935ZM159.219 39.2649C159.08 40.7647 160.03 44.253 160.629 43.5043C161.593 42.3402 159.815 39.064 159.219 39.2649ZM246.38 48.6441C246.379 48.6451 246.378 48.6461 246.376 48.6471C246.377 48.6439 246.378 48.6407 246.379 48.6375C246.379 48.6397 246.38 48.6419 246.38 48.6441ZM108.328 42.9964C107.906 44.3094 107.081 44.2031 107.333 46.2019C107.03 45.8336 106.725 45.4716 106.423 45.1031C106.483 45.7056 106.546 46.3091 106.606 46.9054C107.437 47.2044 108.271 47.5045 109.103 47.8097C108.848 46.207 108.6 44.5974 108.328 42.9964ZM99.5086 42.4248C98.4862 42.3177 99.5875 44.965 99.4931 46.3031C99.3984 47.6412 98.4023 46.6549 98.6876 48.5344C99.2852 48.5519 99.9089 48.5673 100.513 48.5778C100.159 46.5373 99.8493 44.4542 99.5066 42.425C99.5072 42.425 99.5079 42.4249 99.5086 42.4248ZM189.781 41.654C189.215 41.0027 189.657 38.9421 188.199 41.268C188.2 41.2681 188.201 41.2681 188.202 41.2682C188.693 42.1415 189.26 42.9814 189.877 43.4482C190.589 43.9537 191.374 44.0283 192.178 43.2491C191.614 41.1865 190.875 42.3884 190.035 41.8777C189.951 41.8242 189.867 41.7516 189.781 41.654ZM117.418 45.3241C117.546 43.6478 116.085 42.3971 115.936 43.9576C115.698 46.483 117.221 47.8704 117.418 45.3241ZM218.643 29.8545C220.147 24.8728 218.745 18.9935 216.48 21.2561C216.282 21.4544 217.44 23.1964 216.955 24.1494C216.906 24.2432 216.195 24.052 215.947 24.7403C215.699 25.4304 215.726 27.0913 215.365 27.7516C214.731 28.9056 213.784 26.5581 213.241 28.1002C213.169 28.3069 213.673 30.5754 213.711 30.6633C214.325 32.0663 215.326 29.2655 215.442 29.2576C216.043 29.217 215.734 31.4594 215.833 32.0032C216.02 33.0261 216.614 32.0791 216.642 32.1562C217.353 34.2177 215.347 33.4541 214.989 34.2383C214.024 36.3549 214.521 38.4606 212.591 39.5177C212.41 39.6173 210.367 39.2794 212.705 42.0582C207.082 46.8008 214.974 45.3047 215.926 44.222C216.362 43.7225 215.985 41.5206 216.311 40.577C217.053 38.419 217.992 38.1145 218.205 34.9924C218.649 28.4286 217.067 32.6074 216.361 31.4271C216.583 30.0138 216.75 28.6305 217.041 27.2549C216.617 29.1027 218.532 30.2303 218.642 29.8674C218.642 29.8631 218.642 29.8588 218.643 29.8545ZM205.118 36.05C204.19 33.9576 203.841 38.0953 203.049 35.6252C201.745 39.2365 203.578 39.1774 203.765 39.4082C204.626 40.4431 204.187 44.4729 205.3 43.3349C205.21 40.9141 205.187 38.4749 205.118 36.05ZM214.837 38.7576C213.868 40.7749 215.241 40.8732 215.258 41.2784C215.451 45.5819 211.425 44.3547 214.837 38.7576ZM151.616 31.6242C151.221 31.5094 151.607 33.4998 151.31 34.1168C151.251 34.2399 151.153 34.2746 151.035 34.2609C150.571 34.204 149.767 33.3505 149.864 34.3508C149.992 35.5994 152.306 38.6954 150.266 39.5499C150.389 40.2473 150.403 40.7731 150.484 41.4055C150.839 41.391 151.192 41.3815 151.543 41.3715C151.769 41.3647 151.995 41.3578 152.218 41.3493C151.895 39.9421 151.562 38.4834 151.235 37.0694C151.1 36.4731 150.966 35.8849 150.835 35.3117C150.904 34.7688 150.986 34.6333 151.066 34.6943C151.231 34.8163 151.382 35.73 151.394 35.7291C151.394 35.727 151.393 35.7248 151.393 35.7227C151.994 35.5173 152.495 31.88 151.616 31.6242ZM181.277 37.1309C181.585 32.1001 180.501 37.6901 180.145 38.3041C179.777 38.9145 179.355 37.0369 179.473 39.2093C179.984 40.7191 181.235 37.6913 181.277 37.1244C181.277 37.1266 181.277 37.1288 181.277 37.1309ZM198.972 35.4146C197.897 36.5317 197.911 37.8501 196.911 36.2428C196.83 37.4589 196.745 38.7014 196.666 39.899C197.578 40.0193 197.884 36.4963 198.799 38.0213C198.949 38.2732 198.28 41.0427 199.162 40.2224C199.09 38.6994 199.033 37.0112 198.972 35.4146ZM193.825 39.4184C194.922 39.3449 196.803 29.6315 194.346 33.8462C193.983 34.4767 192.999 39.4763 193.825 39.4184ZM161.576 30.7797C159.739 30.5854 161.886 32.0713 162.44 33.563C158.247 34.9794 162.919 33.1213 163.537 38.1413C163.992 36.6856 164.828 33.3687 163.712 32.5356C163.241 32.1905 163.471 33.6821 163.444 33.677C162.602 33.3425 162.6 30.886 161.576 30.7797ZM207.114 36.0138C207.036 36.0803 206.97 37.784 206.712 38.0991C206.453 38.4116 206.071 37.1747 205.913 38.2079C205.753 39.2476 206.686 40.1637 207.075 39.4344C207.465 38.6978 207.814 35.4277 207.114 36.0138ZM200.438 31.0994C199.385 32.2198 200.244 38.6124 200.446 38.6043C202.246 38.464 200.18 33.0678 200.438 31.0994ZM165.472 19.9618C163.295 23.2292 165.214 28.6906 166.684 31.9582C166.845 31.279 167.011 30.599 167.171 29.9264C166.462 34.0447 165.174 38.1294 168.25 34.4679C166.473 33.5555 167.895 32.4141 167.91 32.183C167.895 24.6599 165.34 28.2355 165.474 19.9618C165.473 19.9618 165.473 19.9618 165.472 19.9618ZM209.952 38.1072C210.933 38.1827 213.604 37.1443 212.745 33.7658C211.815 35.2134 210.887 36.6616 209.952 38.1072ZM128.517 23.0502C127.542 21.2581 126.82 21.3563 125.845 21.5705C126.982 24.2035 126.428 24.5691 126.191 25.2615C125.831 26.3042 126.92 26.1209 126.939 26.3036C127.156 28.8849 126.499 29.3491 128.075 29.1423C127.767 30.0766 127.464 31.0175 127.154 31.946C128.373 31.9519 128.808 33.6092 129.764 35.595C128.56 30.6393 129.831 33.6947 130.488 31.1148C130.817 29.8231 129.013 23.9668 128.514 23.0504C128.515 23.0503 128.516 23.0502 128.517 23.0502ZM163.066 19.042C162.866 19.96 162.701 21.1977 162.526 22.245C162.286 22.3546 162.045 22.4525 161.802 22.5627C161.735 21.7616 161.67 20.9232 161.598 20.1532C161.259 19.9349 161.439 21.0464 161.347 21.1559C161.347 21.1516 161.346 21.1473 161.346 21.143C160.039 22.6903 159.466 22.5539 158.249 20.1323C158.384 22.5904 158.519 25.0484 158.654 27.5064C158.882 27.2588 159.112 27.0171 159.338 26.7762C159.395 25.4485 159.452 24.12 159.511 22.7924C159.834 23.506 160.151 24.2152 160.467 24.9298C160.667 24.4435 160.91 23.9305 161.08 23.4584C162.518 30.2774 159.781 25.7308 159.895 28.5868C159.985 30.4189 162.493 30.2155 162.797 28.9358C162.842 28.7482 162.067 23.6535 163.112 26.2798C163.281 26.6936 163.795 37.7653 164.414 28.7578C164.505 27.48 163.742 20.6181 163.066 19.042ZM153.441 15.9841C155.346 22.9638 149.516 15.8384 152.205 21.5058C151.775 24.8003 151.893 24.7496 152.744 27.5908C152.818 27.8455 152.425 28.7693 152.474 28.8801C153.193 30.4297 153.872 29.5376 154.065 32.4308C154.217 32.266 154.361 32.1189 154.512 31.9544C153.66 29.2718 154.615 27.3695 154.906 25.0412C155.036 23.9866 154.567 23.6933 154.674 22.7707C154.715 22.4336 155.38 23.0598 155.346 22.1033C155.266 19.9403 154.697 17.0451 153.914 15.4966C153.914 15.4945 153.914 15.4923 153.914 15.4902C153.751 15.6429 153.597 15.8254 153.441 15.9841ZM185.02 21.387C185.046 25.3159 185.927 26.4896 183.963 28.2965C184.011 29.0724 184.063 29.842 184.111 30.618C184.425 30.5676 184.722 30.5176 185.04 30.4755C186.743 19.0092 187.628 32.146 187.081 23.8925C187.023 22.9953 186.182 23.9332 187.113 21.5758C187.112 21.5736 187.111 21.5713 187.11 21.5691C185.985 22.2336 185.779 23.6128 185.02 21.387ZM177.836 23.8553C175.352 32.0592 181 28.5235 180.144 26.3227C180.062 26.1181 177.59 27.836 177.836 23.8553ZM197.874 18.0809C196.823 17.8287 196.291 22.2474 196.234 23.8525C196.177 25.4624 197.081 23.9234 197.15 24.185C197.373 25.0473 196.66 25.5274 196.943 26.7068C197.037 27.0899 198.724 28.8613 198.829 28.6797C199.411 27.6705 199.104 23.9465 199.283 23.5427C199.867 22.2183 200.265 24.1807 200.596 22.2524C201.305 18.1385 199.736 22.3705 199.54 22.4214C198.952 22.5587 199.246 20.2317 198.87 19.72C198.494 19.2091 198.131 19.979 197.774 19.7747C197.655 19.7065 197.927 18.1013 197.874 18.0809ZM193.386 27.0651C194.765 23.9956 192.73 20.3111 192.172 20.5792C192.141 20.5938 192.115 20.6202 192.093 20.6592C191.632 21.5135 191.623 22.8773 191.814 24.1489C192.116 26.2032 192.958 28.0196 193.386 27.0651ZM157.709 26.4448C158.591 23.9486 156.089 22.1114 155.465 23.1363C155.647 24.1411 157.419 27.3025 157.709 26.4448ZM166.107 19.9531C165.169 20.7459 166.639 26.1994 167.4 26.091C167.753 22.4638 167.343 23.192 166.824 23.0598C166.3 22.9265 166.84 19.3366 166.107 19.9531ZM208.983 23.2864C208.79 23.2093 205.24 25.8441 206.972 27.2732C207.105 27.3806 209.429 27.0922 209.659 26.5561C210.12 25.4723 209.483 23.4998 208.983 23.2864ZM170.629 14.4971C170.152 17.633 169.667 17.6009 170.197 21.2634C170.198 21.2634 170.198 21.2634 170.199 21.2634C168.958 22.4125 168.704 14.9063 168.432 15.0733C167.467 15.662 168.531 20.9833 167.971 22.7545C169.323 21.0685 169.024 24.6826 170.077 24.8894C170.305 24.9339 171.236 22.7653 171.355 21.4223C171.477 20.0783 170.928 16.0626 170.629 14.4971ZM213.629 22.9763C212.659 21.6747 211.148 26.6161 212.584 27.5693C213.287 28.0377 214.221 23.7687 213.629 22.9763ZM102.495 23.8986C102.789 25.2055 103.088 26.5064 103.393 27.7998C103.019 28.1585 102.645 28.5239 102.273 28.8887C102.552 28.4396 102.833 27.9967 103.115 27.5534C102.311 27.1648 101.734 24.7913 102.493 23.8988C102.493 23.8987 102.494 23.8986 102.495 23.8986ZM75.42 25.4086C74.9682 24.1639 74.6506 28.1703 74.7621 28.4707C75.6021 30.7092 76.048 27.1343 75.42 25.4086ZM155.473 14.5183C154.155 14.0435 155.428 20.4205 156.245 20.8141C155.683 19.6132 156.239 14.7882 155.473 14.5183ZM84.9261 24.8603C85.0902 25.4014 85.2554 25.9425 85.4334 26.4831C84.9636 25.7531 84.8469 25.2436 84.9261 24.8603ZM209.055 17.5734C208.913 17.0618 207.54 16.5083 207.284 17.0964C206.752 18.3338 207.49 21.9877 208.256 20.9671C208.34 20.8578 209.195 18.0852 209.052 17.5731C209.053 17.5732 209.054 17.5733 209.055 17.5734ZM100.552 21.6053C100.56 21.6664 100.565 21.7251 100.566 21.7794C100.562 21.7221 100.556 21.6629 100.552 21.6053ZM46.5592 19.7045C46.5742 19.8037 46.5855 19.9023 46.5915 19.9973C46.5818 19.9043 46.5686 19.8066 46.5592 19.7045ZM199.586 11.0813C199.745 4.92524 198.305 8.05837 198.86 11.1682C198.892 11.3319 199.471 11.0572 199.586 11.0813Z" fill="#FFD37A"/>
</svg>
